<mxfile host="app.diagrams.net" modified="2020-05-06T08:22:33.443Z" agent="5.0 (X11)" etag="Qo6UdvKtGpNvPEwjeDkP" version="13.0.8" type="github">
  <diagram id="XANVNk20N3bkjaSXn2D1" name="Page-1">
    <mxGraphModel dx="821" dy="464" grid="1" gridSize="10" guides="1" tooltips="1" connect="1" arrows="1" fold="1" page="1" pageScale="1" pageWidth="850" pageHeight="1100" math="0" shadow="0">
      <root>
        <mxCell id="0" />
        <mxCell id="1" parent="0" />
        <mxCell id="Pdgr7FIveBXOdPRiF1eQ-1" value="&lt;div&gt;First EN&lt;/div&gt;&lt;div&gt;MLP&lt;/div&gt;&lt;div&gt;layers&lt;br&gt;&lt;/div&gt;" style="shape=trapezoid;perimeter=trapezoidPerimeter;whiteSpace=wrap;html=1;rotation=90;" vertex="1" parent="1">
          <mxGeometry x="200" y="173" width="120" height="60" as="geometry" />
        </mxCell>
        <mxCell id="Pdgr7FIveBXOdPRiF1eQ-2" value="&lt;div&gt;Classif&lt;/div&gt;&lt;div&gt;layer&lt;br&gt;&lt;/div&gt;" style="shape=trapezoid;perimeter=trapezoidPerimeter;whiteSpace=wrap;html=1;rotation=90;size=0.4126984126984127;" vertex="1" parent="1">
          <mxGeometry x="255" y="105" width="210" height="60" as="geometry" />
        </mxCell>
        <mxCell id="Pdgr7FIveBXOdPRiF1eQ-3" value="MH-SAtt" style="rounded=1;whiteSpace=wrap;html=1;" vertex="1" parent="1">
          <mxGeometry x="130" y="57" width="80" height="50" as="geometry" />
        </mxCell>
        <mxCell id="Pdgr7FIveBXOdPRiF1eQ-4" value="" style="endArrow=classic;html=1;exitX=1;exitY=0.5;exitDx=0;exitDy=0;entryX=0.25;entryY=1;entryDx=0;entryDy=0;" edge="1" parent="1" source="Pdgr7FIveBXOdPRiF1eQ-3" target="Pdgr7FIveBXOdPRiF1eQ-2">
          <mxGeometry width="50" height="50" relative="1" as="geometry">
            <mxPoint x="400" y="270" as="sourcePoint" />
            <mxPoint x="450" y="220" as="targetPoint" />
          </mxGeometry>
        </mxCell>
        <mxCell id="Pdgr7FIveBXOdPRiF1eQ-6" value="" style="endArrow=classic;html=1;exitX=0.5;exitY=0;exitDx=0;exitDy=0;entryX=0.824;entryY=0.967;entryDx=0;entryDy=0;entryPerimeter=0;" edge="1" parent="1" source="Pdgr7FIveBXOdPRiF1eQ-1" target="Pdgr7FIveBXOdPRiF1eQ-2">
          <mxGeometry width="50" height="50" relative="1" as="geometry">
            <mxPoint x="220" y="90" as="sourcePoint" />
            <mxPoint x="340" y="92.5" as="targetPoint" />
          </mxGeometry>
        </mxCell>
        <mxCell id="Pdgr7FIveBXOdPRiF1eQ-7" value="DA" style="text;html=1;strokeColor=none;fillColor=none;align=center;verticalAlign=middle;whiteSpace=wrap;rounded=0;" vertex="1" parent="1">
          <mxGeometry x="400" y="125" width="40" height="20" as="geometry" />
        </mxCell>
      </root>
    </mxGraphModel>
  </diagram>
</mxfile>
